# xmcd
#
# Track frame offsets:
#	150
#	17618
#	31770
#	44054
#	57556
#	68308
#	82897
#	95543
#	106603
#	119202
#	133599
#	148006
#
# Disc length: 2146 seconds
#
# Revision: 0
# Processed by: cddbd v1.5.2PL0 Copyright (c) Steve Scherf et al.
# Submitted via: EasyCDDAExtractor 10.2.0.1
#
DISCID=9e08600c
DTITLE=Elias da Viola - Paixão sertaneja
DYEAR=2007
DGENRE=Sertanejo
TTITLE0=Mãe e filha
TTITLE1=Amargurado
TTITLE2=Violeiro
TTITLE3=Linda bancária
TTITLE4=Meu recanto
TTITLE5=A saudade vem
TTITLE6=Beijo de mulher bonita
TTITLE7=Tô querendo você
TTITLE8=Amor, amor
TTITLE9=Sonho colorido
TTITLE10=Volte pra mim
TTITLE11=Bota chifre nele
EXTD=
EXTT0=
EXTT1=
EXTT2=
EXTT3=
EXTT4=
EXTT5=
EXTT6=
EXTT7=
EXTT8=
EXTT9=
EXTT10=
EXTT11=
PLAYORDER=
